<svg width="32" height="32" fill="none" xmlns="http://www.w3.org/2000/svg"><path d="M0 0h32v32H0V0z" fill="#fff"/><path d="M7 28H5a2 2 0 01-2-2V2a2 2 0 012-2h18a2 2 0 012 2v2h2a2 2 0 012 2v18.725a2 2 0 01-.773 1.58l-6.79 5.274a2 2 0 01-1.228.421H9a2 2 0 01-2-2v-2z" fill="#fff"/><path d="M29 7.135v16.569a2 2 0 01-2 2h-5l-.815 4.642A2 2 0 0119.215 32H9a2 2 0 01-2-2v-.865l22-22z" fill="#F0ECF8"/><path fill-rule="evenodd" clip-rule="evenodd" d="M7 28H5a2 2 0 01-2-2V2a2 2 0 012-2h18a2 2 0 012 2v2h2a2 2 0 012 2v18.725a2 2 0 01-.773 1.58l-6.79 5.274a2 2 0 01-1.228.421H9a2 2 0 01-2-2v-2zM7 6v21H5a1 1 0 01-1-1V2a1 1 0 011-1h18a1 1 0 011 1v2H9a2 2 0 00-2 2zm20.961 19c.026-.088.039-.181.039-.275V6a1 1 0 00-1-1H9a1 1 0 00-1 1v24a1 1 0 001 1h11.21a1 1 0 00.613-.21l.177-.138V27a2 2 0 012-2h4.961zm-.973 1H23a1 1 0 00-1 1v2.875L26.988 26zM24.5 12h-6a.5.5 0 000 1h6a.5.5 0 000-1zm-6 6h5a.5.5 0 010 1h-5a.5.5 0 010-1zm3-3h-3a.5.5 0 000 1h3a.5.5 0 000-1z" fill="#C5C9D4"/><path fill-rule="evenodd" clip-rule="evenodd" d="M15 9.492c0 .415-.148.77-.445 1.065A1.445 1.445 0 0113.5 11c-.407 0-.758-.148-1.055-.443A1.449 1.449 0 0112 9.492c0-.405.148-.754.445-1.05A1.445 1.445 0 0113.5 8c.407 0 .758.148 1.055.443.297.295.445.644.445 1.049zm1 10.518a.986.986 0 01-.039.252c-.026.096-.055.144-.086.144-.322 0-.724-.015-1.207-.045-.483-.03-.906-.045-1.27-.045-.352 0-.742.015-1.168.045-.425.03-.794.045-1.105.045-.031 0-.06-.048-.086-.144A.986.986 0 0111 20.01c0-.06.013-.138.039-.234.026-.096.055-.15.086-.162.384-.048.656-.168.817-.36.161-.192.242-.576.242-1.152v-2.7c0-.48-.08-.792-.242-.936-.16-.144-.433-.24-.817-.288-.031-.012-.06-.063-.086-.153A.845.845 0 0111 13.8c0-.06.013-.138.039-.234.026-.096.055-.144.086-.144.498-.12 1.059-.315 1.682-.585.623-.27 1.106-.501 1.448-.693.032-.024.083-.054.156-.09a.438.438 0 01.187-.054c.125 0 .216.024.273.072.057.048.08.102.07.162l-.078 1.53c-.031.6-.047 1.104-.047 1.512v2.826c0 .564.083.948.25 1.152.166.204.436.324.81.36.03 0 .06.051.085.153.026.102.039.183.039.243z" fill="#6947BF"/></svg>