<svg width="32" height="32" fill="none" xmlns="http://www.w3.org/2000/svg"><path d="M0 0h32v32H0V0z" fill="#fff"/><path d="M30 17a2 2 0 012 2v2a2 2 0 01-2 2v5.5a1.5 1.5 0 01-3 0v-.875l-6.225-2.334c-.265.425-.737.709-1.275.709H19v4a2 2 0 01-2 2h-1a2 2 0 01-2-2v-4c0-.073.004-.14.012-.204A5.502 5.502 0 0110 20.5v-1c0-.169.008-.335.022-.5H2a2 2 0 01-2-2V2a2 2 0 012-2h21a2 2 0 012 2v11.125l2-.75V11.5a1.5 1.5 0 013 0V17z" fill="#fff"/><path fill-rule="evenodd" clip-rule="evenodd" d="M20 19h1v-3.307l4-1.5V2a2 2 0 00-2-2h-2.138L1.866 18.996c.044.003.089.004.134.004h9.027a4.5 4.5 0 014.473-4h4a.5.5 0 01.5.5V19zm8-.722l-5.117 1.371.043.16-12.275 3.29A5.5 5.5 0 0015.5 26h4c.538 0 1.01-.284 1.275-.71L28 28v-9.722z" fill="#FDEFF2"/><path fill-rule="evenodd" clip-rule="evenodd" d="M30 17a2 2 0 012 2v2a2 2 0 01-2 2v5.5a1.5 1.5 0 01-3 0v-.875l-6.225-2.334c-.265.425-.737.709-1.275.709H19v4a2 2 0 01-2 2h-1a2 2 0 01-2-2v-4c0-.073.004-.14.012-.204A5.502 5.502 0 0110 20.5v-1c0-.169.008-.335.022-.5H2a2 2 0 01-2-2V2a2 2 0 012-2h21a2 2 0 012 2v11.125l2-.75V11.5a1.5 1.5 0 013 0V17zm-1 11.5v-17a.5.5 0 00-1 0v17a.5.5 0 001 0zM24 2v11.5l-3.225 1.21A1.499 1.499 0 0019.5 14h-4a5.502 5.502 0 00-5.293 4H2a1 1 0 01-1-1V2a1 1 0 011-1h21a1 1 0 011 1zm-8.5 13a4.5 4.5 0 00-4.5 4.5v1a4.5 4.5 0 004.5 4.5h4a.5.5 0 00.5-.5v-9a.5.5 0 00-.5-.5h-4zM15 30v-4h3v4a1 1 0 01-1 1h-1a1 1 0 01-1-1zm6-14.307v8.614l6 2.25V13.443l-6 2.25zM30 22v-4a1 1 0 011 1v2a1 1 0 01-1 1z" fill="#C5C9D4"/><path fill-rule="evenodd" clip-rule="evenodd" d="M4 5v5a1 1 0 001 1h7a1 1 0 001-1V5a1 1 0 00-1-1H5a1 1 0 00-1 1zm16.5-1h-5a.5.5 0 000 1h5a.5.5 0 000-1zm-5 3h5a.5.5 0 010 1h-5a.5.5 0 010-1zm5 3h-5a.5.5 0 000 1h5a.5.5 0 000-1z" fill="#E55E75"/></svg>