<svg width="32" height="32" fill="none" xmlns="http://www.w3.org/2000/svg"><g clip-path="url(#clip0)"><path d="M0 0h32v32H0V0z" fill="#fff"/><path fill-rule="evenodd" clip-rule="evenodd" d="M6.45 15.923c-.152-.043-.302-.09-.45-.137V28a4 4 0 004 4h18.462l.538-.126c1.725-.444 3-2.01 3-3.874v-3a2 2 0 00-2-2h-3V4a2 2 0 00-2-2H14.566a2.998 2.998 0 01.482 1.393c.558 6.555-1.99 10.949-7.496 12.53l-.55.157-.551-.157z" fill="#fff"/><path d="M10.168 32L26.817 3.163c.117.255.183.538.183.837v24c0 1.48.804 2.773 2 3.465V32H10.168z" fill="#E8F6ED"/><path fill-rule="evenodd" clip-rule="evenodd" d="M6 15.786c.148.048.298.094.45.137l.55.157V28a3 3 0 003 3h17a4.99 4.99 0 01-1-3V4a1 1 0 00-1-1H14.988a2.998 2.998 0 00-.422-1H25a2 2 0 012 2v19h3a2 2 0 012 2v3a4.002 4.002 0 01-3 3.874l-.538.126H10a4 4 0 01-4-4V15.786zm22.334 15.196A3 3 0 0031 28v-3a1 1 0 00-1-1h-3v4a3.99 3.99 0 001.334 2.982zM22.5 7h-7.481c-.04.342-.09.675-.152 1H22.5a.5.5 0 000-1zm-10.017 6H22.5a.5.5 0 010 1H11.412c.387-.307.744-.64 1.07-1zm8.017-3h-6.193a10.1 10.1 0 01-.444 1H20.5a.5.5 0 000-1zm-10 6h9a.5.5 0 010 1h-9a.5.5 0 010-1zm12 6h-12a.5.5 0 000 1h12a.5.5 0 000-1zm-12-3h11a.5.5 0 010 1h-11a.5.5 0 010-1zm5 6h-5a.5.5 0 000 1h5a.5.5 0 000-1z" fill="#C5C9D4"/><path fill-rule="evenodd" clip-rule="evenodd" d="M1.494 2.753L6.553.223a1 1 0 01.894 0l5.06 2.53a1 1 0 01.548.81C13.537 9.223 11.52 12.703 7 14 2.481 12.709.463 9.23.945 3.563a1 1 0 01.549-.81zm4.692 5.203l-.945-1.01a.702.702 0 00-.514-.228c-.402 0-.727.348-.727.778 0 .214.082.408.214.55 1.03 1.1.47.5 1.5 1.601a.702.702 0 00.513.229c.22 0 .418-.107.552-.273.948-1.18 2.158-2.708 3.105-3.89a.803.803 0 00.175-.505c0-.43-.325-.778-.727-.778a.713.713 0 00-.552.272C7.344 6.486 7.32 6.541 6.186 7.956z" fill="#19AB4F"/></g><defs><clipPath id="clip0"><path d="M0 0h32v32H0V0z" fill="#fff"/></clipPath></defs></svg>