<svg width="32" height="32" fill="none" xmlns="http://www.w3.org/2000/svg"><path d="M0 0h32v32H0V0z" fill="#fff"/><path d="M20 23c1.275.22.74-.912 1-2 .354-1.483 1.286-3.27 2-5 1.239-3 .761-7-2-7s-7 2.03-7 7c0 1.763.465 3.063 1.172 4.097.511.748 1.149 1.358 1.828 1.903 1.03.827 2 .827 3 1z" fill="#E8F7F7"/><path d="M16 16.271l-1.735.912a.5.5 0 01-.725-.527l.331-1.932-1.403-1.368a.5.5 0 01.277-.852l1.94-.282.867-1.758a.5.5 0 01.896 0l.868 1.758 1.94.282a.5.5 0 01.276.852l-1.403 1.368.331 1.932a.5.5 0 01-.725.527L16 16.271z" fill="#42BFC2"/><path fill-rule="evenodd" clip-rule="evenodd" d="M16 0a.5.5 0 01.5.5v4a.5.5 0 01-1 0v-4A.5.5 0 0116 0zm3 28.83A3.001 3.001 0 0021 26v-3c0-2.01.757-3.28 1.51-4.545.747-1.253 1.49-2.5 1.49-4.455 0-4.694-3.582-8-8-8s-8 3.306-8 8c0 1.966.745 3.214 1.492 4.467C10.245 19.727 11 20.993 11 23v3c0 1.306.835 2.418 2 2.83V29a3 3 0 106 0v-.17zM20 23v2h-8v-2h8zm-6 6a2 2 0 104 0h-4zm6.049-7H11.95c-.143-1.348-.617-2.398-1.613-4.068C9.318 16.223 9 15.406 9 14c0-4.041 3.031-7 7-7s7 2.959 7 7c0 1.395-.318 2.213-1.33 3.913l-.03.048c-.977 1.641-1.448 2.69-1.591 4.039zM26.96 5.04a.5.5 0 00-.707-.707L23.425 7.16a.5.5 0 00.707.707L26.96 5.04zM8.575 22.718a.5.5 0 010 .707l-2.828 2.828a.5.5 0 11-.707-.707l2.828-2.828a.5.5 0 01.707 0zM5.04 5.04a.5.5 0 10-.707.707L7.16 8.575a.5.5 0 10.707-.707L5.04 5.04zm17.678 18.385a.5.5 0 01.707 0l2.828 2.828a.5.5 0 01-.707.707l-2.828-2.828a.5.5 0 010-.707zM1.5 15a.5.5 0 000 1h4a.5.5 0 000-1h-4zm24.5.5a.5.5 0 01.5-.5h4a.5.5 0 010 1h-4a.5.5 0 01-.5-.5zM14 28a2 2 0 01-2-2h8a2 2 0 01-2 2h-4z" fill="#CED3DE"/></svg>