<svg width="32" height="32" fill="none" xmlns="http://www.w3.org/2000/svg"><g clip-path="url(#clip0)"><path d="M0 0h32v32H0V0z" fill="#fff"/><path d="M16 32c8.837 0 16-7.163 16-16S24.837 0 16 0 0 7.163 0 16s7.163 16 16 16z" fill="#fff"/><path fill-rule="evenodd" clip-rule="evenodd" d="M15.585 0a.508.508 0 11.025 1.016c-2.008.05-3.954.497-5.751 1.304a.508.508 0 01-.416-.927A15.939 15.939 0 0115.585 0zm11.518 5.18a.508.508 0 00-.014-.718 16.017 16.017 0 00-5.307-3.39.508.508 0 00-.368.948c1.851.718 3.54 1.8 4.97 3.174a.508.508 0 00.719-.014zM32 15.792a.508.508 0 01-1.016.012 14.925 14.925 0 00-1.23-5.766.508.508 0 11.932-.404A15.941 15.941 0 0132 15.792zm-5.332 11.452c.2.197.521.195.719-.005a16.02 16.02 0 003.459-5.26.508.508 0 10-.943-.38 15.003 15.003 0 01-3.24 4.926.508.508 0 00.005.719zm-11.181 4.248c0 .28.227.508.508.508 2.147 0 4.236-.423 6.175-1.234a.508.508 0 10-.392-.938 14.945 14.945 0 01-5.783 1.156.508.508 0 00-.508.508zM5.03 5.035a.508.508 0 00-.718.024 16.004 16.004 0 00-3.32 5.35.508.508 0 10.952.355 14.988 14.988 0 013.11-5.01.508.508 0 00-.024-.719zM0 16.615a.508.508 0 011.016-.039 14.904 14.904 0 001.379 5.732.508.508 0 11-.922.429A15.92 15.92 0 010 16.615zm5.176 10.488a.508.508 0 00.033.718 16 16 0 005.395 3.248.508.508 0 00.342-.956 14.986 14.986 0 01-5.052-3.043.508.508 0 00-.718.033z" fill="#C5C9D4"/><path fill-rule="evenodd" clip-rule="evenodd" d="M13.764 5.646l-5.059 2.53a5 5 0 00-2.746 4.048c-.634 7.456 2.446 12.766 8.942 14.622l1.102.315 1.1-.316c6.493-1.864 9.572-7.172 8.938-14.622a5 5 0 00-2.746-4.048l-5.059-2.53a5 5 0 00-4.472 0zm-3.82 6.917a1 1 0 01.55-.81l5.059-2.53a1 1 0 01.894 0l5.06 2.53a1 1 0 01.548.81C22.537 18.223 20.52 21.703 16 23c-4.519-1.291-6.537-4.77-6.055-10.437z" fill="#168CCA" fill-opacity=".1"/><path fill-rule="evenodd" clip-rule="evenodd" d="M15.553 9.224l-5.06 2.53a1 1 0 00-.548.809C9.463 18.23 11.48 21.709 16 23c4.519-1.297 6.537-4.776 6.055-10.437a1 1 0 00-.549-.81l-5.059-2.53a1 1 0 00-.894 0zM16 21.956C13.1 21.042 11.443 19.1 10.997 16H16v5.956zM16 16v-5.882l5.059 2.53c.105 1.24.087 2.356-.057 3.352H16z" fill="#168CCA"/></g><defs><clipPath id="clip0"><path d="M0 0h32v32H0V0z" fill="#fff"/></clipPath></defs></svg>