<svg width="32" height="32" fill="none" xmlns="http://www.w3.org/2000/svg"><path d="M0 0h32v32H0V0z" fill="#fff"/><path d="M29.386 4.249H30a2 2 0 012 2V30a2 2 0 01-2 2H2c-.115 0-.228-.01-.337-.028L29.386 4.249z" fill="#F0ECF8"/><path fill-rule="evenodd" clip-rule="evenodd" d="M6 2v2H2a2 2 0 00-2 2v24a2 2 0 002 2h28a2 2 0 002-2V6a2 2 0 00-2-2h-4V2a1 1 0 00-1-1h-5a1 1 0 00-1-1h-6a1 1 0 00-1 1H7a1 1 0 00-1 1zM1 6a1 1 0 011-1h28a1 1 0 011 1v24a1 1 0 01-1 1H2a1 1 0 01-1-1V6zm6-2h18V2h-5a1 1 0 01-1 1h-6a1 1 0 01-1-1H7v2zm6-2V1h6v1h-6z" fill="#C5C9D4"/><path fill-rule="evenodd" clip-rule="evenodd" d="M12.211 26H9a1 1 0 01-1-1v-3.848l-1.302.349a.5.5 0 11-.26-.966L8 20.116v-1.964l-1.302.349a.5.5 0 11-.26-.966L8 17.116v-1.964l-1.302.349a.5.5 0 11-.26-.966L8 14.116V11a1 1 0 011-1h1.634l-.567-.982a.5.5 0 01.866-.5L11.789 10h2.845l-.567-.982a.5.5 0 01.866-.5L15.789 10h2.845l-.567-.982a.5.5 0 01.866-.5L19.789 10H23a1 1 0 011 1v2.848l1.302-.349a.5.5 0 11.26.966L24 14.884v1.964l1.302-.349a.5.5 0 11.26.966L24 17.884v1.964l1.302-.349a.5.5 0 11.26.966L24 20.884V25a1 1 0 01-1 1h-1.634l.567.982a.5.5 0 11-.866.5L20.211 26h-2.845l.567.982a.5.5 0 11-.866.5L16.211 26h-2.845l.567.982a.5.5 0 11-.866.5L12.211 26zm-.577-1l-.567-.982a.5.5 0 01.866-.5L12.789 25h2.845l-.567-.982a.5.5 0 01.866-.5L16.789 25h2.845l-.567-.982a.5.5 0 01.866-.5L20.789 25H23v-3.848l-1.302.349a.5.5 0 11-.26-.966L23 20.116v-1.964l-1.302.349a.5.5 0 11-.26-.966L23 17.116v-1.964l-1.302.349a.5.5 0 11-.26-.966L23 14.116V11h-2.634l.567.982a.5.5 0 11-.866.5L19.211 11h-2.845l.567.982a.5.5 0 11-.866.5L15.211 11h-2.845l.567.982a.5.5 0 11-.866.5L11.211 11H9v2.848l1.303-.349a.5.5 0 11.258.966L9 14.884v1.964l1.303-.349a.5.5 0 11.258.966L9 17.884v1.964l1.303-.349a.5.5 0 11.258.966L9 20.884V25h2.634zm3.866-9a.5.5 0 101 0 .5.5 0 00-1 0zm.5 2.5a.5.5 0 110-1 .5.5 0 010 1zm1.5-2.5a.5.5 0 101 0 .5.5 0 00-1 0zm.5 2.5a.5.5 0 110-1 .5.5 0 010 1zM13.5 16a.5.5 0 101 0 .5.5 0 00-1 0zm.5 2.5a.5.5 0 110-1 .5.5 0 010 1zm-.5 1.5a.5.5 0 101 0 .5.5 0 00-1 0zm2.5.5a.5.5 0 110-1 .5.5 0 010 1zm1.5-.5a.5.5 0 101 0 .5.5 0 00-1 0z" fill="#6947BF"/></svg>