<svg width="32" height="32" fill="none" xmlns="http://www.w3.org/2000/svg"><g clip-path="url(#clip0)"><path d="M0 0h32v32H0V0z" fill="#fff"/><path d="M4 30a2 2 0 01-2-2V5a2 2 0 012-2h4a1 1 0 011-1h2a2 2 0 012-2h2a2 2 0 012 2h2a1 1 0 011 1h4a2 2 0 012 2v23a2 2 0 01-2 2H4z" fill="#fff"/><path fill-rule="evenodd" clip-rule="evenodd" d="M20.623 13.316A6.002 6.002 0 0126 10.318V5a2 2 0 00-2-2h-4.396v2h-2.728L3.604 29.96c.128.026.26.04.396.04h10.069a4.999 4.999 0 014.153-6.524l2.4-4.159a6.002 6.002 0 01.001-6zM26 28v-5.685c-.06.002-.121.002-.182.002l-2.4 4.159A5.004 5.004 0 0123.57 30H24a2 2 0 002-2z" fill="#FBF0EA"/><path fill-rule="evenodd" clip-rule="evenodd" d="M4 30h10.069a5.029 5.029 0 01-.219-1H4a1 1 0 01-1-1V5a1 1 0 011-1h4v1a1 1 0 001 1h10a1 1 0 001-1V4h4a1 1 0 011 1v5.371c.33-.045.664-.064 1-.053V5a2 2 0 00-2-2h-4a1 1 0 00-1-1h-2a2 2 0 00-2-2h-2a2 2 0 00-2 2H9a1 1 0 00-1 1H4a2 2 0 00-2 2v23a2 2 0 002 2zm19.788-1c-.038.337-.11.672-.218 1H24a2 2 0 002-2v-5.685c-.06.002-.121.002-.182.002L25 23.735V28a1 1 0 01-1 1h-.212zm-2.97-16a6.075 6.075 0 00-.534 1H6.5a.5.5 0 010-1h14.319zm-.758 5a6.025 6.025 0 01-.202-1H6.5a.5.5 0 000 1h13.56zM6.5 9h15a.5.5 0 010 1h-15a.5.5 0 010-1zm5 12h-5a.5.5 0 000 1h5a.5.5 0 000-1zM16 2a1 1 0 00-1-1h-2a1 1 0 00-1 1h4zM9 5V3h10v2H9z" fill="#C5C9D4"/><path fill-rule="evenodd" clip-rule="evenodd" d="M25.098 15.855l1.937-3.355a4.002 4.002 0 00-3.874 6.71l-3.648 6.32a3.001 3.001 0 00-2.049 5.547 3 3 0 003.78-4.548l3.65-6.32a4.002 4.002 0 003.873-6.709l-1.937 3.355a1 1 0 01-1.732-1zM20.2 29.205a1.44 1.44 0 01-1.964.538 1.44 1.44 0 01-.517-1.97 1.44 1.44 0 011.965-.538 1.44 1.44 0 01.516 1.97z" fill="#E06E31"/></g><defs><clipPath id="clip0"><path d="M0 0h32v32H0V0z" fill="#fff"/></clipPath></defs></svg>