<svg width="32" height="32" fill="none" xmlns="http://www.w3.org/2000/svg"><path d="M6.835 25.22L25.206 6.849c.239-.239 1.457.062 1.79.484A13.94 13.94 0 0130 16c0 7.732-6.268 14-14 14-3.051 0-5.875-.976-8.175-2.633-.262-.189.817-1.038.62-1.433-.257-.514-1.743-.58-1.61-.714z" fill="#E8F6ED"/><path d="M2.254 22.013a2.495 2.495 0 00-.933.363C-1.22 16.526-.096 9.47 4.686 4.686c5.819-5.818 15.005-6.219 21.286-1.2l2.133-2.132a.5.5 0 01.838.232l1.584 6.335a.5.5 0 01-.606.606l-6.335-1.584a.5.5 0 01-.232-.838l1.906-1.907C19.374-.432 10.821-.034 5.393 5.393.9 9.887-.147 16.523 2.253 22.013zM28.187 2.685l-3.502 3.502 4.67 1.168-1.168-4.67zm1.788 7.856a2.495 2.495 0 001.002-.18c2.141 5.697.92 12.37-3.663 16.953-5.666 5.666-14.525 6.194-20.786 1.584l-2.236 2.236a.5.5 0 01-.844-.256l-1.26-6.303a.5.5 0 01.587-.588l6.304 1.26a.5.5 0 01.255.844l-2.09 2.09c5.862 4.225 14.088 3.7 19.363-1.574 4.343-4.344 5.466-10.688 3.369-16.066zM4.245 29.766l3.722-3.721-4.652-.93.93 4.651z" fill="#C5C9D4"/><mask id="a" maskUnits="userSpaceOnUse" x="8" y="9" width="16" height="14"><path d="M10.5 15.996l2.197 2.216c.404.408.404 1.07 0 1.478a1.03 1.03 0 01-1.465 0l-2.929-2.955a1.051 1.051 0 010-1.478l2.93-2.955a1.03 1.03 0 011.464 0c.404.408.404 1.07 0 1.477L10.5 15.996zm11 0l-2.197-2.217a1.051 1.051 0 010-1.477 1.03 1.03 0 011.465 0l2.929 2.955c.404.408.404 1.07 0 1.478l-2.93 2.955a1.03 1.03 0 01-1.464 0 1.051 1.051 0 010-1.478l2.197-2.216zm-3.688-6.762a1 1 0 01.707 1.225L15.413 22.05a1 1 0 01-1.932-.518l3.106-11.59a1 1 0 011.225-.708z" fill="#fff"/></mask><g mask="url(#a)"><path d="M10.5 15.996l2.197 2.216c.404.408.404 1.07 0 1.478a1.03 1.03 0 01-1.465 0l-2.929-2.955a1.051 1.051 0 010-1.478l2.93-2.955a1.03 1.03 0 011.464 0c.404.408.404 1.07 0 1.477L10.5 15.996zm11 0l-2.197-2.217a1.051 1.051 0 010-1.477 1.03 1.03 0 011.465 0l2.929 2.955c.404.408.404 1.07 0 1.478l-2.93 2.955a1.03 1.03 0 01-1.464 0 1.051 1.051 0 010-1.478l2.197-2.216zm-3.688-6.762a1 1 0 01.707 1.225L15.413 22.05a1 1 0 01-1.932-.518l3.106-11.59a1 1 0 011.225-.708z" fill="#19AB4F"/></g></svg>