<svg width="32" height="32" fill="none" xmlns="http://www.w3.org/2000/svg"><path d="M27.316.494C27.736.861 28 1.4 28 2v24a2 2 0 01-2 2H2c-.6 0-1.14-.265-1.506-.684L27.316.494z" fill="#E8F7F7"/><path d="M4 28H2a2 2 0 01-2-2V2a2 2 0 012-2h24a2 2 0 012 2v2h2a2 2 0 012 2v24a2 2 0 01-2 2H6a2 2 0 01-2-2v-2zm1 0v2a1 1 0 001 1h24a1 1 0 001-1V6a1 1 0 00-1-1h-2v21a2 2 0 01-2 2H5zM2 1a1 1 0 00-1 1v24a1 1 0 001 1h24a1 1 0 001-1V2a1 1 0 00-1-1H2zm7 7h3a1 1 0 011 1v3a1 1 0 01-1 1H9a1 1 0 01-1-1V9a1 1 0 011-1zm0 1v3h3V9H9zm7 6h3a1 1 0 011 1v3a1 1 0 01-1 1h-3a1 1 0 01-1-1v-3a1 1 0 011-1zm0 1v3h3v-3h-3z" fill="#C5C9D4"/><path d="M9 15h3a1 1 0 011 1v3a1 1 0 01-1 1H9a1 1 0 01-1-1v-3a1 1 0 011-1zm7-7h3a1 1 0 110 2h-3a1 1 0 110-2zm0 3h3a1 1 0 110 2h-3a1 1 0 110-2z" fill="#42BFC2"/></svg>