<svg width="32" height="32" fill="none" xmlns="http://www.w3.org/2000/svg"><path d="M0 0h32v32H0V0z" fill="#fff"/><path opacity=".1" fill-rule="evenodd" clip-rule="evenodd" d="M21.985 7.056A6.087 6.087 0 0019.293 2l-6.08 10.53a6.093 6.093 0 008.772-5.474zM8.241 21.47a5.108 5.108 0 11-5.079 8.797l5.08-8.796zm20 0a5.108 5.108 0 11-5.079 8.797l5.08-8.796z" fill="#168CCA"/><path fill-rule="evenodd" clip-rule="evenodd" d="M23 7a7 7 0 10-7 7h-.5v2.5H8A2.5 2.5 0 005.5 19v1H6a6 6 0 100 12 6 6 0 000-12h.5v-1A1.5 1.5 0 018 17.5h16a1.5 1.5 0 011.5 1.5v1h.5a6 6 0 100 12 6 6 0 000-12h.5v-1a2.5 2.5 0 00-2.5-2.5h-7.5V14H16a7 7 0 007-7zm-7-6a6 6 0 100 12 6 6 0 000-12zM6 21a5 5 0 100 10 5 5 0 000-10zm15 5a5 5 0 1110 0 5 5 0 01-10 0z" fill="#C5C9D4"/><path fill-rule="evenodd" clip-rule="evenodd" d="M16 5a2 2 0 110 4 2 2 0 010-4zm10 19a2 2 0 110 4 2 2 0 010-4zM8 26a2 2 0 10-4 0 2 2 0 004 0z" fill="#168CCA"/></svg>