<svg width="32" height="32" fill="none" xmlns="http://www.w3.org/2000/svg"><path d="M18.602 10.946l6.883-9.83a6 6 0 01-6.883 9.83zm-16 13l6.883-9.83a6 6 0 01-6.883 9.83zm20 7l6.883-9.83a6 6 0 01-6.883 9.83z" fill="#FDEFF2"/><path d="M5.997 10.073a13.032 13.032 0 017.155-5.494c.129-.04.296-.087.502-.14a.36.36 0 01.448.4.833.833 0 01-.587.679c-.193.057-.35.107-.47.15a12.032 12.032 0 00-5.89 4.47c-.075.106-.166.245-.274.416a1 1 0 01-.848.466h-.01a.336.336 0 01-.29-.502c.104-.183.192-.331.264-.445zM9.801 26.6a11.946 11.946 0 008.229 2.354.738.738 0 01.734.423.38.38 0 01-.301.537c-.31.035-.56.058-.75.068a12.944 12.944 0 01-8.973-2.946h-.001a.337.337 0 01.096-.574l.004-.001a1 1 0 01.962.14zm18.963-15.138a12.95 12.95 0 011.151 7.002.381.381 0 01-.54.3.736.736 0 01-.42-.733A9.955 9.955 0 0029 17a11.962 11.962 0 00-1.057-4.926.83.83 0 01.124-.887.362.362 0 01.6.073l.097.201zM22 12a6 6 0 110-12 6 6 0 010 12zm0-1a5 5 0 100-10 5 5 0 000 10zM6 25a6 6 0 110-12 6 6 0 010 12zm0-1a5 5 0 100-10 5 5 0 000 10zm20 8a6 6 0 110-12 6 6 0 010 12zm0-1a5 5 0 100-10 5 5 0 000 10z" fill="#C5C9D4"/><path d="M22 8a2 2 0 110-4 2 2 0 010 4zm-2.836 2.119C19.57 8.706 20.518 8 22.007 8c1.487 0 2.434.703 2.841 2.11-.808.561-1.79.89-2.848.89a4.977 4.977 0 01-2.836-.881zM6 21a2 2 0 110-4 2 2 0 010 4zm-2.836 2.119C3.57 21.706 4.518 21 6.008 21c1.486 0 2.433.703 2.84 2.11C8.04 23.67 7.058 24 6 24a4.977 4.977 0 01-2.836-.881zM26 28a2 2 0 110-4 2 2 0 010 4zm-2.836 2.119C23.57 28.706 24.518 28 26.007 28c1.487 0 2.434.703 2.841 2.11-.808.561-1.79.89-2.848.89a4.977 4.977 0 01-2.836-.881z" fill="#E55E75"/></svg>