<svg width="32" height="32" fill="none" xmlns="http://www.w3.org/2000/svg"><g clip-path="url(#clip0)"><path d="M26 18.245V31.5a.5.5 0 01-.5.5h-22A3.5 3.5 0 010 28.5V4.154C0 1.86 1.79 0 4 0h20c1.105 0 2 .93 2 2.077v.71c-.33-.089 0 15.458 0 15.458z" fill="#fff"/><path fill-rule="evenodd" clip-rule="evenodd" d="M18.273 4.858a7.988 7.988 0 016.79-2.263l-.028-.697C25.013 1.363 25 1.044 25 1H15c-.734 2.144-1.418 4.144-2.05 6h3.791a7.989 7.989 0 011.532-2.142zm7.207 15.665l-.048-2.149a8.001 8.001 0 01-7.159-2.202A7.97 7.97 0 0115.945 11h-4.357C8.418 20.333 6.888 25 7 25h18c.205 0 .365-1.492.48-4.477z" fill="#E8F5FC"/><path fill-rule="evenodd" clip-rule="evenodd" d="M25 2.2v.387c.336.045.67.111 1 .2v-.71C26 .93 25.105 0 24 0H4C1.79 0 0 1.86 0 4.154V28.5A3.5 3.5 0 003.5 32h22a.5.5 0 000-1h-22a2.5 2.5 0 010-5H24a2 2 0 002-2v-5.755c-.33.088-.664.154-1 .2V24a1 1 0 01-1 1H5V1h19c.552 0 1 .537 1 1.2zM16.741 7c.168-.344.363-.678.583-1H9a1 1 0 00-1 1v4a1 1 0 001 1h7.068a8.047 8.047 0 01-.123-1H9V7h7.741zM4 1C2.343 1 1 2.612 1 4.6v21.45A3.49 3.49 0 013.5 25H4V1zm21.5 27h-21a.5.5 0 000 1h21a.5.5 0 000-1z" fill="#CED3DE"/><path fill-rule="evenodd" clip-rule="evenodd" d="M19.687 14.758a6.002 6.002 0 007.72.648l2.887 2.887a1 1 0 101.414-1.414l-2.887-2.887a6.002 6.002 0 00-9.134-7.72 6 6 0 000 8.486zm7.071-7.071a4 4 0 11-5.656 5.656 4 4 0 015.656-5.656z" fill="#1AA0E8"/></g><defs><clipPath id="clip0"><path d="M0 0h32v32H0V0z" fill="#fff"/></clipPath></defs></svg>